/* XPM */
static char * icon_xpm[] = {
"16 16 33 1",
" 	c None",
".	c #020606",
"+	c #025A06",
"@	c #029E02",
"#	c #7D7C7E",
"$	c #60BC65",
"%	c #95999D",
"&	c #B8B5A9",
"*	c #DF6A6E",
"=	c #82DE86",
"-	c #06560A",
";	c #4FB54E",
">	c #53534F",
",	c #A2464A",
"'	c #8EDE92",
")	c #C6C6B7",
"!	c #76726F",
"~	c #29DA30",
"{	c #4A121A",
"]	c #D2827E",
"^	c #DFDBCF",
"/	c #DE9E9A",
"(	c #373A35",
"_	c #938A92",
":	c #D5CEBF",
"<	c #ABAD9C",
"[	c #4AAE56",
"}	c #474741",
"|	c #63CE66",
"1	c #C4C6E6",
"2	c #36EE3D",
"3	c #7A8D7B",
"4	c #E8E8D4",
"                ",
"                ",
"}_______##!!!!#(",
"!.((((((%^::::4>",
"!(|2||2|))<)<<^>",
"!(2%~~%~&))11&^>",
"!-|_$$_;')&#>%)>",
"!+2~~$~~&)&&%&^>",
"!(%[~;33=)):::^>",
"!4^^^^^^^))@;@|>",
"!:<&:<<:&<:_&%1>",
"!:&{*&<#,_:%&%)>",
"!::*]::/*&:#}_>>",
"!4)^^))^^)^^%4%>",
"(}(((((((((((}}(",
"                "};
