/* XPM */
static char * dso_mode_xpm[] = {
"22 22 3 1",
" 	c None",
".	c #06C100",
"+	c #000000",
"                      ",
"                      ",
"                      ",
"                      ",
"     ..               ",
"    .  .              ",
"   .    .             ",
"  .     .             ",
"  .      .            ",
" .       .            ",
" .       .           .",
".         .          .",
"++++++++++.+++++++++.+",
"           .        . ",
"           .       .  ",
"            .      .  ",
"            .      .  ",
"             .    .   ",
"              .  .    ",
"               ..     ",
"                      ",
"                      "};
